<?xml version="1.0" encoding="UTF-8"?>
<svg id="Layer_1" data-name="Layer 1" xmlns="http://www.w3.org/2000/svg" width="1895.55" height="1270.06" viewBox="0 0 1895.55 1270.06">
  <defs>
    <style>
      .cls-3 {
        fill: #25e900;
      }
    </style>
  </defs>
  <g id="NPO_Links_binnenvorm" data-name="NPO Links binnenvorm">
    <path class="cls-3" d="M634.97,22.53c-22.15,0-44.24,10.87-65.68,32.33L54.68,569.41c-21.44,21.44-32.31,43.53-32.31,65.68s10.87,44.24,32.31,65.68l514.58,514.58c42.85,42.9,88.49,42.9,131.36,0l514.65-514.63c21.41-21.41,32.28-43.51,32.28-65.68s-10.87-44.24-32.31-65.66L700.62,54.84c-21.44-21.46-43.51-32.33-65.66-32.33h0v.03Z"/>
  </g>
  <g id="NPO_Links" data-name="NPO Links">
    <path fill="#e6e6e6" d="M498.32,408.54c15.59,15.57,15.09,30.28-2.41,47.7l-32.84,32.89c-17.55,17.5-32.1,17.98-47.72,2.34l-37.59-37.62c-15.59-15.54-15.14-30.25,2.34-47.7l32.82-32.87c17.58-17.53,32.18-17.96,47.83-2.36l37.59,37.62Zm158.13-233.34c-15.65-15.59-30.28-15.14-47.77,2.41l-32.87,32.87c-17.45,17.45-17.96,32.15-2.31,47.7l37.54,37.62c15.62,15.65,30.22,15.16,47.77-2.36l32.84-32.87c17.42-17.45,17.93-32.18,2.36-47.7l-37.56-37.62v-.05Zm574.65,541.37l-514.65,514.6c-51.81,51.84-111.25,51.84-163.01,0L38.86,716.6c-51.81-51.81-51.81-111.22,0-163.03L553.46,39.01c51.84-51.86,111.22-51.86,163.01,0l514.6,514.55c51.84,51.76,51.84,111.2,.05,163.01h-.03Zm-846.94-104.59l-82.98-82.93c-38.78-38.78-85.26-39.49-128.8,3.99l-30.99,30.94c-43.48,43.48-42.8,90.06-4.01,128.82l82.93,83.03c14.5,14.45,30.73,12.29,41.88,1.22,11.07-11.18,13-27.28-1.5-41.65l-82.19-82.29c-15.59-15.54-15.11-30.22,2.41-47.7l32.87-32.84c17.45-17.53,32.15-18.03,47.72-2.39l82.24,82.22c14.4,14.48,30.5,12.55,41.6,1.45,11.15-11.15,13.28-27.38-1.17-41.86h-.03Zm155.31-243.22l-39.09-38.94c-38.73-38.78-85.26-39.49-128.72,4.01l-30.99,30.99c-43.51,43.43-42.82,89.96-4.06,128.77l125.29,125.22c14.48,14.4,30.76,12.29,41.88,1.19,11.12-11.12,12.98-27.13-1.42-41.6l-28.83-28.75c7.85-1.65,17.5-7.65,28.85-18.95l33.07-33.12c43.56-43.46,42.8-89.99,4.09-128.8l-.08-.03Zm195.7-195.7l-39.06-38.96c-38.68-38.78-85.29-39.47-128.75,4.01l-30.94,30.99c-43.51,43.48-42.8,89.99-4.09,128.77l39.06,38.96c38.73,38.86,85.31,39.55,128.77-3.94l30.94-31.01c43.51-43.48,42.82-90.01,4.09-128.82h-.03Z"/>
  </g>
  <g id="NPO_Zapp" data-name="NPO Zapp">
    <g>
      <path class="cls-3" d="M664.48,553.44c-51.79,51.81-51.79,111.22,0,163.03l514.58,514.58c51.81,51.84,111.25,51.84,163.06,0l514.58-514.58c51.84-51.81,51.76-111.25,0-163.03L1342.12,38.86c-51.81-51.81-111.25-51.81-163.03,0L664.48,553.44Z"/>
      <g>
        <path fill="#021d00" d="M1701.59,428.48h-158.21l-4.55,25.93-1.42,8.13c-26.95-28.32-68.14-34.06-97.1-34.06h-158.21l-4.55,25.93-5.36,30.48c-20.88-37.13-60.63-56.41-117.98-56.41h-381.69l-4.52,26.01-13.87,79.78-6.38,36.75h82.47l-106.17,122.98-5.82,6.73-1.42,8.76-12.9,79.78-5.89,36.37h291.6l4.06-23.39c22.66,19.89,54.2,31.04,92.2,31.04,16.79,0,31.24-2.29,43.63-6.02v5.03l33.17-1.9,81.76-4.72h119.88l4.6-25.91,14.05-79.22h22.43c37.01,0,66.87-6.86,90.39-21.26l-15.75,89.56-6.48,36.8h152.06l4.6-25.91,14.05-79.19h22.43c90.98,0,138.83-41.45,155.11-134.41,2.9-16.79,4.29-31.01,4.29-43.63,0-99.21-78.02-114.01-124.53-114.01h0Z"/>
        <path fill="#ffffff" d="M1701.59,459.84c64.97,0,93.16,27.71,93.16,82.65,0,11.45-1.42,24.36-3.81,38.23-12.9,73.58-45.39,108.45-124.23,108.45h-48.74l-18.62,105.1h-88.39l58.77-334.42h131.84Zm2.87,103.19c0-17.19-9.07-24.84-28.65-24.84h-31.55l-12.9,72.61h32c23.42,0,35.84-11,40.13-36.32,.48-4.29,.97-8.13,.97-11.45Zm-264.15-103.19c64.97,0,93.16,27.71,93.16,82.65,0,11.45-1.42,24.36-3.81,38.23-12.9,73.58-45.39,108.45-124.23,108.45h-48.74l-18.64,105.1h-88.39l58.77-334.42h131.87Zm2.87,103.19c0-17.19-9.07-24.84-28.68-24.84h-31.52l-12.9,72.61h32c23.42,0,35.84-11,40.13-36.32,.48-4.29,.97-8.13,.97-11.45Zm-374.45-103.19h85.52c70.71,0,103.68,32.48,103.68,100.81,0,4.77,0,10.52-.48,15.77l-13.87,217.84-82.65,4.77v-29.61c-16.26,21.97-41.58,32.48-75,32.48-63.07,0-99.84-35.84-99.84-93.64,0-76.45,49.68-130.9,126.59-130.9,27.71,0,46.81,5.74,57.81,15.29l.48-8.13c.48-4.77,.48-9.07,.48-12.9,0-28.68-9.55-32-52.55-32h-64l13.87-79.78h-.03Zm94.58,218.33c0-17.68-11.94-25.81-38.23-25.81-31.06,0-50.16,15.77-50.16,42.03,0,17.68,13.39,27.71,38.23,27.71,32,0,50.16-16.26,50.16-43.94Zm-364.4-218.33h218.33l-12.9,79.78-150.97,174.84h123.74l-13.87,79.78h-228.36l12.9-79.78,150.97-174.84h-113.71l13.87-79.78h0Z"/>
      </g>
    </g>
  </g>
</svg>