<?xml version="1.0" encoding="UTF-8"?><svg id="Layer_1" xmlns="http://www.w3.org/2000/svg" viewBox="0 0 1895.55 1270.05"><defs><style>.cls-1{fill:#25e900;}.cls-2{fill:#021d00;}.cls-3{fill:#e6e6e6;}</style></defs><g id="NPO_Links"><path class="cls-3" d="M498.32,408.54c15.59,15.57,15.09,30.28-2.41,47.7l-32.84,32.89c-17.55,17.5-32.1,17.98-47.72,2.34l-37.59-37.62c-15.59-15.54-15.14-30.25,2.34-47.7l32.82-32.87c17.58-17.53,32.18-17.96,47.83-2.36l37.59,37.62h-.02ZM656.45,175.2c-15.65-15.59-30.28-15.14-47.77,2.41l-32.87,32.87c-17.45,17.45-17.96,32.15-2.31,47.7l37.54,37.62c15.62,15.65,30.22,15.16,47.77-2.36l32.84-32.87c17.42-17.45,17.93-32.18,2.36-47.7l-37.56-37.62v-.05h0ZM963.87,983.76l-247.43,247.4c-51.81,51.84-111.25,51.84-163.01,0L38.86,716.6c-51.81-51.81-51.81-111.22,0-163.03L553.46,39.01c51.84-51.86,111.22-51.86,163.01,0l231.24,231.22-303.71,340.57c51.84,51.76,91.88,177.1,91.91,177.1l227.97,195.87ZM384.16,611.98l-82.98-82.93c-38.78-38.78-85.26-39.49-128.8,3.99l-30.99,30.94c-43.48,43.48-42.8,90.06-4.01,128.82l82.93,83.03c14.5,14.45,30.73,12.29,41.88,1.22,11.07-11.18,13-27.28-1.5-41.65l-82.19-82.29c-15.59-15.54-15.11-30.22,2.41-47.7l32.87-32.84c17.45-17.53,32.15-18.03,47.72-2.39l82.24,82.22c14.4,14.48,30.5,12.55,41.6,1.45,11.15-11.15,13.28-27.38-1.17-41.86h-.03.02ZM539.47,368.76l-39.09-38.94c-38.73-38.78-85.26-39.49-128.72,4.01l-30.99,30.99c-43.51,43.43-42.82,89.96-4.06,128.77l125.29,125.22c14.48,14.4,30.76,12.29,41.88,1.19,11.12-11.12,12.98-27.13-1.42-41.6l-28.83-28.75c7.85-1.65,17.5-7.65,28.85-18.95l33.07-33.12c43.56-43.46,42.8-89.99,4.09-128.8l-.08-.03h0ZM735.17,173.06l-39.06-38.96c-38.68-38.78-85.29-39.47-128.75,4.01l-30.94,30.99c-43.51,43.48-42.8,89.99-4.09,128.77l39.06,38.96c38.73,38.86,85.31,39.55,128.77-3.94l30.94-31.01c43.51-43.48,42.82-90.01,4.09-128.82h-.03.01Z"/></g><g id="NPO_Zapp"><path class="cls-1" d="M1163.31,678.16c0,27.68-18.16,43.94-50.16,43.94-24.84,0-38.23-10.03-38.23-27.71,0-26.26,19.1-42.03,50.16-42.03,26.28,0,38.23,8.13,38.23,25.8Z"/><path class="cls-1" d="M1414.5,538.19h-31.52l-12.9,72.61h32c23.42,0,35.84-11,40.13-36.32.48-4.29.97-8.13.97-11.45,0-17.19-9.07-24.84-28.68-24.84ZM1675.81,538.19h-31.55l-12.9,72.61h32c23.42,0,35.84-11,40.13-36.32.48-4.29.97-8.13.97-11.45,0-17.19-9.07-24.84-28.65-24.84ZM1414.5,538.19h-31.52l-12.9,72.61h32c23.42,0,35.84-11,40.13-36.32.48-4.29.97-8.13.97-11.45,0-17.19-9.07-24.84-28.68-24.84ZM1675.81,538.19h-31.55l-12.9,72.61h32c23.42,0,35.84-11,40.13-36.32.48-4.29.97-8.13.97-11.45,0-17.19-9.07-24.84-28.65-24.84ZM1856.7,553.44L1342.12,38.86c-51.81-51.81-111.25-51.81-163.03,0l-389.64,389.62-20.49,20.49-104.48,104.47c-51.79,51.81-51.79,111.22,0,163.03l71.43,71.43,11.87-73.44,150.97-174.84h-113.71l13.87-79.78h218.33l-12.9,79.78-150.97,174.84h123.74l-13.87,79.78h-220.99l436.81,436.81c51.81,51.84,111.25,51.84,163.06,0l514.58-514.58c51.84-51.81,51.76-111.25,0-163.03ZM1794.75,542.49c0,11.45-1.42,24.36-3.81,38.23-12.9,73.58-45.39,108.45-124.23,108.45h-48.74l-18.62,105.1h-88.39l58.77-334.42h131.86c64.97-.01,93.16,27.7,93.16,82.64ZM1338.05,794.27h-88.39l58.77-334.42h131.88c64.97-.01,93.16,27.7,93.16,82.64,0,11.45-1.42,24.36-3.81,38.23-12.9,73.58-45.39,108.45-124.23,108.45h-48.74l-18.64,105.1ZM1112.68,577.36c27.71,0,46.81,5.74,57.81,15.29l.48-8.13c.48-4.77.48-9.07.48-12.9,0-28.68-9.55-32-52.55-32h-64l13.87-79.78h85.48c70.71,0,103.68,32.48,103.68,100.81,0,4.77,0,10.52-.48,15.77l-13.87,217.84-82.65,4.77v-29.61c-16.26,21.97-41.58,32.48-75,32.48-63.07,0-99.84-35.84-99.84-93.64,0-76.45,49.68-130.9,126.59-130.9ZM1675.81,538.19h-31.55l-12.9,72.61h32c23.42,0,35.84-11,40.13-36.32.48-4.29.97-8.13.97-11.45,0-17.19-9.07-24.84-28.65-24.84ZM1442.21,574.48c.48-4.29.97-8.13.97-11.45,0-17.19-9.07-24.84-28.68-24.84h-31.52l-12.9,72.61h32c23.42,0,35.84-11,40.13-36.32ZM1414.5,538.19h-31.52l-12.9,72.61h32c23.42,0,35.84-11,40.13-36.32.48-4.29.97-8.13.97-11.45,0-17.19-9.07-24.84-28.68-24.84ZM1414.5,538.19h-31.52l-12.9,72.61h32c23.42,0,35.84-11,40.13-36.32.48-4.29.97-8.13.97-11.45,0-17.19-9.07-24.84-28.68-24.84Z"/><path class="cls-2" d="M1163.31,678.16c0,27.68-18.16,43.94-50.16,43.94-24.84,0-38.23-10.03-38.23-27.71,0-26.26,19.1-42.03,50.16-42.03,26.28,0,38.23,8.13,38.23,25.8Z"/></g></svg>